#!OML:ASF X:\für Bonn\!DataBase\2005_08_10_Bjorn_Final\c3d\bjorn.ASF
:FULLY-SPECIFIED
:DEGREES
76
root 1.48493 18.7622 1.16862 -221.46 -3.95557 169.303
lowerback 32.0136 1.41972 -13.6279
upperback 17.8656 9.89349 -14.014
thorax 5.24061 9.80014 -9.78707
lowerneck -0.768917 -0.391987 -12.9541
upperneck 0.899191 -0.741008 15.9855
head 0.4926 -0.419552 7.02104
rclavicle -3.02153e-014 -2.22639e-014
rhumerus 3.95672 6.3782 -62.952
rradius 40.3296
rwrist 7.51678
rhand -17.8767 21.5774
rfingers 7.12502
rthumb 8.38933 -8.23595
lclavicle -3.02153e-014 -2.22639e-014
lhumerus -325.725 -18.2114 -300.226
lradius 39.4145
lwrist -5.63649
lhand -39.9962 -6.90659
lfingers 7.12502
lthumb -12.9642 22.6706
rfemur 26.047 1.49931 11.0427
rtibia 42.3084
rfoot -7.15675 4.25615
rtoes -23.5061
lfemur -105.528 13.5411 -28.6894
ltibia 95.7351
lfoot -13.1482 3.7162
ltoes -25.5944
77
root 1.47725 18.718 1.10135 -222.339 -3.28439 169.281
lowerback 31.5692 1.51757 -13.4005
upperback 18.0507 10.175 -13.9492
thorax 5.65153 9.94175 -9.80331
lowerneck -0.401864 -0.0727821 -13.1541
upperneck 1.19069 -0.353276 15.7129
head 0.455593 -0.233085 6.97153
rclavicle 1.59028e-014 -7.95139e-014
rhumerus 5.07378 7.36004 -61.3443
rradius 40.2526
rwrist 7.09457
rhand -17.6892 21.5459
rfingers 7.12502
rthumb 8.57031 -8.26017
lclavicle 1.59028e-014 -7.95139e-014
lhumerus -325.58 -17.4237 -301.06
lradius 43.7895
lwrist -5.50675
lhand -40.6959 -6.99828
lfingers 7.12502
lthumb -13.6386 22.5349
rfemur 26.8682 1.50049 10.8481
rtibia 42.569
rfoot -7.05169 5.16862
rtoes -24.0423
lfemur -105.454 14.1309 -28.6115
ltibia 90.6734
lfoot -12.5181 3.00552
ltoes -23.961
78
root 1.46607 18.6735 1.03028 -223.18 -2.51251 169.243
lowerback 31.0126 1.65186 -13.0512
upperback 18.1899 10.4738 -13.8458
thorax 6.04717 10.07 -9.83507
lowerneck 0.0317654 0.268985 -13.1743
upperneck 1.62709 0.041893 15.273
head 0.448971 -0.0457913 6.83552
rclavicle 3.81667e-014 -9.85972e-014
rhumerus 6.05495 8.32536 -59.8374
rradius 40.1901
rwrist 6.59184
rhand -17.5299 21.726
rfingers 7.12502
rthumb 8.72405 -8.07376
lclavicle 3.81667e-014 -9.85972e-014
lhumerus -325.785 -16.4845 -301.661
lradius 48.3279
lwrist -5.77229
lhand -41.2875 -6.59712
lfingers 7.12502
lthumb -14.2087 22.8969
rfemur 27.6606 1.53619 10.6389
rtibia 42.7692
rfoot -6.93507 6.14053
rtoes -24.4521
lfemur -104.997 14.8493 -28.3935
ltibia 85.3003
lfoot -11.3672 2.18486
ltoes -22.7617
79
root 1.45238 18.6285 0.956194 -224.01 -1.6985 169.177
lowerback 30.3782 1.80022 -12.6244
upperback 18.2917 10.748 -13.707
thorax 6.42188 10.1647 -9.8572
lowerneck 0.746273 0.674394 -13.1068
upperneck 1.95232 0.50253 14.697
head 0.357608 0.161393 6.6384
rclavicle 3.57812e-014 -2.03555e-013
rhumerus 6.96436 9.2464 -58.4553
rradius 40.1432
rwrist 6.38938
rhand -17.444 21.9173
rfingers 7.12502
rthumb 8.80691 -7.87899
lclavicle 3.57812e-014 -2.03555e-013
lhumerus -326.331 -15.4647 -302.195
lradius 52.9243
lwrist -6.05367
lhand -41.5363 -5.60223
lfingers 7.12502
lthumb -14.4484 23.8748
rfemur 28.4528 1.60413 10.3855
rtibia 42.9241
rfoot -6.77335 7.15824
rtoes -24.4057
lfemur -104.174 15.6888 -28.265
ltibia 79.6162
lfoot -9.72319 1.39016
ltoes -24.0546
80
root 1.43511 18.5807 0.878762 -224.855 -0.812794 169.144
lowerback 29.7307 1.9461 -12.0422
upperback 18.3471 10.9552 -13.5084
thorax 6.7304 10.2034 -9.88952
lowerneck 1.72231 1.15059 -13.0421
upperneck 2.21921 1.03017 14.0382
head 0.201842 0.390468 6.41135
rclavicle 6.75868e-014 6.36111e-015
rhumerus 7.79522 10.1854 -57.1701
rradius 40.1362
rwrist 6.38018
rhand -17.3249 22.1093
rfingers 7.12502
rthumb 8.92182 -7.6821
lclavicle 6.75868e-014 6.36111e-015
lhumerus -327.386 -14.3196 -302.507
lradius 57.5539
lwrist -6.33321
lhand -42.987 -4.81972
lfingers 7.12502
lthumb -15.8459 24.5519
rfemur 29.2739 1.68768 10.1753
rtibia 43.0325
rfoot -6.58909 8.17131
rtoes -24.1395
lfemur -102.991 16.6737 -28.2193
ltibia 73.6597
lfoot -7.68852 0.356752
ltoes -25.7687
81
root 1.41562 18.5347 0.804992 -225.702 0.0988872 169.189
lowerback 29.0611 2.04043 -11.2845
upperback 18.395 11.0562 -13.2462
thorax 7.02021 10.1742 -9.92552
lowerneck 2.85936 1.68517 -12.9954
upperneck 2.4852 1.60939 13.277
head 0.0196783 0.637895 6.14969
rclavicle -1.145e-013 -8.5875e-014
rhumerus 8.64924 11.2 -55.9406
rradius 40.158
rwrist 6.43658
rhand -17.234 22.1545
rfingers 7.12502
rthumb 9.0095 -7.63308
lclavicle -1.145e-013 -8.5875e-014
lhumerus -328.88 -13.0073 -302.598
lradius 62.1686
lwrist -6.36537
lhand -44.7519 -4.71229
lfingers 7.12502
lthumb -17.5449 24.516
rfemur 30.1248 1.73841 10.0444
rtibia 43.0842
rfoot -6.34118 9.15608
rtoes -23.3913
lfemur -101.472 17.6837 -28.1001
ltibia 67.5283
lfoot -4.74756 -0.707711
ltoes -26.3871
82
root 1.39549 18.4996 0.745929 -226.527 1.07157 169.291
lowerback 28.3191 2.08242 -10.3114
upperback 18.442 11.0847 -12.9466
thorax 7.33823 10.1079 -10.0159
lowerneck 4.05524 2.28766 -12.9822
upperneck 2.85489 2.24524 12.5063
head -0.14192 0.90643 5.88525
rclavicle 8.66701e-014 1.74931e-013
rhumerus 9.50018 12.2276 -54.74
rradius 40.255
rwrist 6.51463
rhand -17.0702 22.0278
rfingers 7.12502
rthumb 9.16762 -7.75294
lclavicle 8.66701e-014 1.74931e-013
lhumerus -330.753 -11.5523 -302.522
lradius 66.4524
lwrist -6.30605
lhand -46.0729 -5.85575
lfingers 7.12502
lthumb -18.8158 23.2542
rfemur 30.9371 1.77497 10.0102
rtibia 43.0781
rfoot -6.08425 10.0789
rtoes -22.3336
lfemur -99.629 18.7071 -27.7121
ltibia 61.3194
lfoot -1.63881 -1.53954
ltoes -26.1133
83
root 1.37607 18.472 0.700342 -227.355 2.08366 169.37
lowerback 27.5192 2.11059 -9.26166
upperback 18.4983 11.0915 -12.6212
thorax 7.7031 10.0329 -10.1102
lowerneck 5.04047 2.92057 -12.8662
upperneck 3.52649 2.90936 11.5985
head -0.17148 1.18778 5.5592
rclavicle 8.66701e-014 1.24042e-013
rhumerus 10.3221 13.1275 -53.6556
rradius 40.4354
rwrist 6.64598
rhand -16.8621 21.7276
rfingers 7.12502
rthumb 9.36836 -8.04418
lclavicle 8.66701e-014 1.24042e-013
lhumerus -332.978 -9.98792 -302.347
lradius 70.4095
lwrist -6.15151
lhand -47.1774 -8.06794
lfingers 7.12502
lthumb -19.8778 20.9355
rfemur 31.6983 1.84386 10.0086
rtibia 43.0666
rfoot -5.8732 10.9402
rtoes -21.2357
lfemur -97.3627 19.7332 -26.9962
ltibia 55.0379
lfoot 1.45581 -2.03636
ltoes -25.9657
84
root 1.35518 18.444 0.659941 -228.163 3.11371 169.409
lowerback 26.666 2.11162 -8.09737
upperback 18.5485 11.0919 -12.3394
thorax 8.1206 9.98129 -10.3112
lowerneck 5.92654 3.57523 -12.4819
upperneck 4.37124 3.59923 10.5801
head -0.118968 1.47561 5.15405
rclavicle -9.30312e-014 0
rhumerus 11.0912 13.8845 -52.7378
rradius 40.6568
rwrist 6.75359
rhand -16.619 21.3832
rfingers 7.12502
rthumb 9.60298 -8.37798
lclavicle -9.30312e-014 0
lhumerus -335.414 -8.36188 -302.248
lradius 74.1771
lwrist -6.13035
lhand -47.8522 -8.76591
lfingers 7.12502
lthumb -20.5264 20.169
rfemur 32.3637 1.91997 9.93892
rtibia 43.1189
rfoot -5.54463 11.8472
rtoes -19.7723
lfemur -94.717 20.7792 -26.0865
ltibia 48.7047
lfoot 4.06536 -2.3819
ltoes -26.0382
85
root 1.33329 18.4137 0.621833 -228.969 4.14152 169.38
lowerback 25.786 2.12989 -6.96222
upperback 18.5974 11.094 -12.0398
thorax 8.56567 9.93107 -10.4792
lowerneck 6.73439 4.23816 -11.981
upperneck 5.34914 4.29729 9.48112
head 0.00297782 1.75871 4.70748
rclavicle 2.22639e-014 9.85972e-014
rhumerus 11.8673 14.6033 -51.9023
rradius 40.8778
rwrist 6.62649
rhand -16.3906 21.1056
rfingers 7.12502
rthumb 9.82333 -8.6453
lclavicle 2.22639e-014 9.85972e-014
lhumerus -338.031 -6.65352 -302.138
lradius 77.624
lwrist -5.92007
lhand -48.4803 -8.4077
lfingers 7.12502
lthumb -21.1299 20.4609
rfemur 32.9099 1.99732 9.73224
rtibia 43.3229
rfoot -4.99401 12.8188
rtoes -18.141
lfemur -91.6182 21.8082 -24.9183
ltibia 42.3312
lfoot 5.9499 -2.2306
ltoes -26.5056
